<?xml version="1.0" encoding="iso-8859-1"?>
<!-- Generator: Adobe Illustrator 16.0.0, SVG Export Plug-In . SVG Version: 6.00 Build 0)  -->
<!DOCTYPE svg PUBLIC "-//W3C//DTD SVG 1.1//EN" "http://www.w3.org/Graphics/SVG/1.1/DTD/svg11.dtd">
<svg version="1.1" id="Capa_1" xmlns="http://www.w3.org/2000/svg" xmlns:xlink="http://www.w3.org/1999/xlink" x="0px" y="0px"
	 width="30px" height="30px" viewBox="0 0 70 70" style="enable-background:new 0 0 0 0;"
	 xml:space="preserve">
<g>
	<g>
		<path d="M26.732,5.323h-3.489v-2.37c0-0.71-0.211-1.421-0.656-1.975c-0.993-1.236-2.327-1.109-3.548-0.659
			C15.691,1.555,6.2,5.033,6.2,5.033c-3.168,1.163-5.272,4.179-5.27,7.554c0.007,7.696,0.02,21.15,0.024,26.233
			c0.003,4.058,3.334,7.348,7.392,7.348h21.246c0.792,0,1.453-0.659,1.453-1.451v-0.029c0-0.791-0.65-1.432-1.441-1.434
			l-1.175-0.002c-1.248-1.85-0.397-3.842,0.218-4.869c1.414-0.702,2.397-2.16,2.397-3.843V9.628
			C31.046,7.266,29.094,5.323,26.732,5.323z M21.823,30.368c0.867-0.495,1.42-1.427,1.42-2.425V8.405h3.488
			c0.701,0,1.232,0.51,1.232,1.211v24.833c0,0.526-0.163,1.38-1.232,1.38H6.269L21.823,30.368z M8.347,43.212
			c-2.393,0-4.34-2.039-4.342-4.34h21.069c-0.405,1.326-0.537,2.851-0.049,4.368L8.347,43.212z" fill="#333"/>
		<path d="M35.996,26.103c-0.752,0.022-1.342,0.65-1.319,1.402c0.022,0.738,0.627,1.321,1.36,1.321c0.015,0,0.027,0,0.041,0
			c2.775-0.084,4.949-2.323,4.949-5.097c0-2.772-2.174-5.011-4.949-5.095c-0.735-0.011-1.379,0.568-1.401,1.32
			c-0.022,0.751,0.567,1.38,1.319,1.402c1.294,0.04,2.307,1.082,2.307,2.374C38.303,25.021,37.29,26.062,35.996,26.103z" fill="#333"/>
		<path d="M36.057,14.419c-0.757-0.021-1.371,0.591-1.382,1.342c-0.01,0.752,0.591,1.371,1.343,1.382
			c3.582,0.051,6.497,3.005,6.497,6.585c0,3.581-2.915,6.535-6.497,6.586c-0.752,0.011-1.353,0.62-1.343,1.372
			c0.011,0.745,0.619,1.333,1.362,1.333c0.006,0,0.013,0,0.02,0c5.062-0.078,9.182-4.238,9.182-9.3
			C45.238,18.659,41.119,14.492,36.057,14.419z" fill="#333"/>
	</g>
</g>
<g>
</g>
<g>
</g>
<g>
</g>
<g>
</g>
<g>
</g>
<g>
</g>
<g>
</g>
<g>
</g>
<g>
</g>
<g>
</g>
<g>
</g>
<g>
</g>
<g>
</g>
<g>
</g>
<g>
</g>
</svg>
